<mxfile host="app.diagrams.net" agent="Mozilla/5.0 (Windows NT 10.0; Win64; x64) AppleWebKit/537.36 (KHTML, like Gecko) Chrome/130.0.0.0 Safari/537.36" version="24.8.6">
  <diagram name="第 1 页" id="brwHPym1baECvuYmaZhg">
    <mxGraphModel grid="1" page="1" gridSize="12" guides="1" tooltips="1" connect="1" arrows="1" fold="1" pageScale="1" pageWidth="1654" pageHeight="2336" math="0" shadow="0">
      <root>
        <mxCell id="0" />
        <mxCell id="1" parent="0" />
        <mxCell id="54DzogWweAbs6cRqLhO4-1" value="&lt;font style=&quot;font-size: 18px;&quot;&gt;Sequence Diagram for&amp;nbsp;during a user’s turn of playing the game&lt;/font&gt;" style="rounded=0;whiteSpace=wrap;html=1;" vertex="1" parent="1">
          <mxGeometry x="110" y="90" width="530" height="30" as="geometry" />
        </mxCell>
        <mxCell id="5NUv0LfIs6cqSYfRhfGl-15" value="" style="shape=umlLifeline;perimeter=lifelinePerimeter;whiteSpace=wrap;html=1;container=1;dropTarget=0;collapsible=0;recursiveResize=0;outlineConnect=0;portConstraint=eastwest;newEdgeStyle={&quot;curved&quot;:0,&quot;rounded&quot;:0};participant=umlActor;size=70;" vertex="1" parent="1">
          <mxGeometry x="105" y="190" width="30" height="1610" as="geometry" />
        </mxCell>
        <mxCell id="5NUv0LfIs6cqSYfRhfGl-3" value="" style="html=1;points=[[0,0,0,0,5],[0,1,0,0,-5],[1,0,0,0,5],[1,1,0,0,-5]];perimeter=orthogonalPerimeter;outlineConnect=0;targetShapes=umlLifeline;portConstraint=eastwest;newEdgeStyle={&quot;curved&quot;:0,&quot;rounded&quot;:0};" vertex="1" parent="1">
          <mxGeometry x="110" y="270" width="20" height="1506" as="geometry" />
        </mxCell>
        <mxCell id="5NUv0LfIs6cqSYfRhfGl-14" value="Game System" style="shape=umlLifeline;perimeter=lifelinePerimeter;whiteSpace=wrap;html=1;container=1;dropTarget=0;collapsible=0;recursiveResize=0;outlineConnect=0;portConstraint=eastwest;newEdgeStyle={&quot;curved&quot;:0,&quot;rounded&quot;:0};" vertex="1" parent="1">
          <mxGeometry x="240" y="220" width="100" height="1580" as="geometry" />
        </mxCell>
        <mxCell id="5NUv0LfIs6cqSYfRhfGl-18" value="" style="html=1;points=[[0,0,0,0,5],[0,1,0,0,-5],[1,0,0,0,5],[1,1,0,0,-5]];perimeter=orthogonalPerimeter;outlineConnect=0;targetShapes=umlLifeline;portConstraint=eastwest;newEdgeStyle={&quot;curved&quot;:0,&quot;rounded&quot;:0};" vertex="1" parent="5NUv0LfIs6cqSYfRhfGl-14">
          <mxGeometry x="40" y="60" width="20" height="1488" as="geometry" />
        </mxCell>
        <mxCell id="5NUv0LfIs6cqSYfRhfGl-16" value="Game Player" style="text;html=1;align=center;verticalAlign=middle;whiteSpace=wrap;rounded=0;" vertex="1" parent="1">
          <mxGeometry x="90" y="150" width="60" height="30" as="geometry" />
        </mxCell>
        <mxCell id="5NUv0LfIs6cqSYfRhfGl-24" value="Player&amp;nbsp;" style="shape=umlLifeline;perimeter=lifelinePerimeter;whiteSpace=wrap;html=1;container=1;dropTarget=0;collapsible=0;recursiveResize=0;outlineConnect=0;portConstraint=eastwest;newEdgeStyle={&quot;curved&quot;:0,&quot;rounded&quot;:0};" vertex="1" parent="1">
          <mxGeometry x="364" y="220" width="100" height="1580" as="geometry" />
        </mxCell>
        <mxCell id="5NUv0LfIs6cqSYfRhfGl-25" value="" style="html=1;points=[[0,0,0,0,5],[0,1,0,0,-5],[1,0,0,0,5],[1,1,0,0,-5]];perimeter=orthogonalPerimeter;outlineConnect=0;targetShapes=umlLifeline;portConstraint=eastwest;newEdgeStyle={&quot;curved&quot;:0,&quot;rounded&quot;:0};" vertex="1" parent="5NUv0LfIs6cqSYfRhfGl-24">
          <mxGeometry x="40" y="80" width="20" height="1468" as="geometry" />
        </mxCell>
        <mxCell id="5NUv0LfIs6cqSYfRhfGl-27" value="loop" style="shape=umlFrame;whiteSpace=wrap;html=1;pointerEvents=0;" vertex="1" parent="1">
          <mxGeometry x="90" y="340" width="558" height="1388" as="geometry" />
        </mxCell>
        <mxCell id="5NUv0LfIs6cqSYfRhfGl-40" value="[!gameOver]" style="edgeLabel;resizable=0;html=1;align=center;verticalAlign=bottom;" connectable="0" vertex="1" parent="1">
          <mxGeometry x="135" y="339.9999999999999" as="geometry">
            <mxPoint x="-9" y="47" as="offset" />
          </mxGeometry>
        </mxCell>
        <mxCell id="5NUv0LfIs6cqSYfRhfGl-46" value="startGame()" style="edgeLabel;resizable=0;html=1;align=center;verticalAlign=bottom;" connectable="0" vertex="1" parent="1">
          <mxGeometry x="210" y="290" as="geometry">
            <mxPoint x="-8" y="12" as="offset" />
          </mxGeometry>
        </mxCell>
        <mxCell id="5NUv0LfIs6cqSYfRhfGl-49" value="" style="endArrow=block;endFill=1;html=1;edgeStyle=orthogonalEdgeStyle;align=left;verticalAlign=top;rounded=0;" edge="1" parent="1">
          <mxGeometry x="-1" relative="1" as="geometry">
            <mxPoint x="135" y="300" as="sourcePoint" />
            <mxPoint x="285" y="300" as="targetPoint" />
          </mxGeometry>
        </mxCell>
        <mxCell id="5NUv0LfIs6cqSYfRhfGl-50" value="" style="endArrow=block;endFill=1;html=1;edgeStyle=orthogonalEdgeStyle;align=left;verticalAlign=top;rounded=0;" edge="1" parent="1">
          <mxGeometry x="-1" relative="1" as="geometry">
            <mxPoint x="130" y="400" as="sourcePoint" />
            <mxPoint x="280" y="400" as="targetPoint" />
          </mxGeometry>
        </mxCell>
        <mxCell id="5NUv0LfIs6cqSYfRhfGl-51" value="checkGame()" style="edgeLabel;resizable=0;html=1;align=center;verticalAlign=bottom;" connectable="0" vertex="1" parent="1">
          <mxGeometry x="200" y="400.0000000000001" as="geometry" />
        </mxCell>
        <mxCell id="5NUv0LfIs6cqSYfRhfGl-55" value="endGame" style="edgeLabel;resizable=1;html=1;align=center;verticalAlign=bottom;movable=1;rotatable=1;deletable=1;editable=1;locked=0;connectable=1;" connectable="0" vertex="1" parent="1">
          <mxGeometry x="192" y="1680" as="geometry">
            <mxPoint x="8" y="65" as="offset" />
          </mxGeometry>
        </mxCell>
        <mxCell id="5NUv0LfIs6cqSYfRhfGl-54" value="" style="endArrow=block;endFill=1;html=1;edgeStyle=orthogonalEdgeStyle;align=left;verticalAlign=top;rounded=0;" edge="1" parent="1">
          <mxGeometry x="-1" relative="1" as="geometry">
            <mxPoint x="135" y="1751" as="sourcePoint" />
            <mxPoint x="285" y="1751" as="targetPoint" />
          </mxGeometry>
        </mxCell>
        <mxCell id="5NUv0LfIs6cqSYfRhfGl-56" value="alt" style="shape=umlFrame;whiteSpace=wrap;html=1;pointerEvents=0;movable=1;resizable=1;rotatable=1;deletable=1;editable=1;locked=0;connectable=1;" vertex="1" parent="1">
          <mxGeometry x="90" y="444" width="234" height="156" as="geometry" />
        </mxCell>
        <mxCell id="5NUv0LfIs6cqSYfRhfGl-58" value="gameOver" style="html=1;verticalAlign=bottom;endArrow=open;dashed=1;endSize=8;curved=0;rounded=0;movable=1;resizable=1;rotatable=1;deletable=1;editable=1;locked=0;connectable=1;" edge="1" parent="1">
          <mxGeometry relative="1" as="geometry">
            <mxPoint x="280" y="420" as="sourcePoint" />
            <mxPoint x="130.0000000000001" y="420" as="targetPoint" />
            <mxPoint as="offset" />
          </mxGeometry>
        </mxCell>
        <mxCell id="N0xQrKwxlJMAW4WGzeQc-1" value="" style="edgeStyle=orthogonalEdgeStyle;rounded=0;orthogonalLoop=1;jettySize=auto;html=1;" edge="1" parent="1" source="5NUv0LfIs6cqSYfRhfGl-64" target="5NUv0LfIs6cqSYfRhfGl-56">
          <mxGeometry relative="1" as="geometry" />
        </mxCell>
        <mxCell id="5NUv0LfIs6cqSYfRhfGl-64" value="[Gameover==false]" style="edgeLabel;resizable=1;html=1;align=center;verticalAlign=bottom;movable=1;rotatable=1;deletable=1;editable=1;locked=0;connectable=1;" connectable="0" vertex="1" parent="1">
          <mxGeometry x="150" y="443.9999999999999" as="geometry">
            <mxPoint x="-9" y="47" as="offset" />
          </mxGeometry>
        </mxCell>
        <mxCell id="5NUv0LfIs6cqSYfRhfGl-69" value="[Gameover==true]" style="edgeLabel;resizable=1;html=1;align=center;verticalAlign=bottom;movable=1;rotatable=1;deletable=1;editable=1;locked=0;connectable=1;" connectable="0" vertex="1" parent="1">
          <mxGeometry x="150" y="499.9999999999999" as="geometry">
            <mxPoint x="-9" y="47" as="offset" />
          </mxGeometry>
        </mxCell>
        <mxCell id="5NUv0LfIs6cqSYfRhfGl-70" value="" style="endArrow=none;startArrow=none;endFill=0;startFill=0;endSize=8;html=1;verticalAlign=bottom;dashed=1;labelBackgroundColor=none;dashPattern=10 10;rounded=0;movable=1;resizable=1;rotatable=1;deletable=1;editable=1;locked=0;connectable=1;" edge="1" parent="1">
          <mxGeometry width="160" relative="1" as="geometry">
            <mxPoint x="90" y="530" as="sourcePoint" />
            <mxPoint x="330" y="530" as="targetPoint" />
          </mxGeometry>
        </mxCell>
        <mxCell id="5NUv0LfIs6cqSYfRhfGl-71" value="GameContinue" style="html=1;verticalAlign=bottom;endArrow=open;dashed=1;endSize=8;curved=0;rounded=0;movable=1;resizable=1;rotatable=1;deletable=1;editable=1;locked=0;connectable=1;" edge="1" parent="1">
          <mxGeometry relative="1" as="geometry">
            <mxPoint x="280" y="516" as="sourcePoint" />
            <mxPoint x="130" y="516" as="targetPoint" />
            <mxPoint as="offset" />
          </mxGeometry>
        </mxCell>
        <mxCell id="5NUv0LfIs6cqSYfRhfGl-72" value="gameOver=true" style="html=1;verticalAlign=bottom;endArrow=open;dashed=1;endSize=8;curved=0;rounded=0;movable=1;resizable=1;rotatable=1;deletable=1;editable=1;locked=0;connectable=1;" edge="1" parent="1">
          <mxGeometry relative="1" as="geometry">
            <mxPoint x="280" y="580" as="sourcePoint" />
            <mxPoint x="130" y="580" as="targetPoint" />
            <mxPoint as="offset" />
          </mxGeometry>
        </mxCell>
        <mxCell id="5NUv0LfIs6cqSYfRhfGl-73" value="" style="endArrow=block;endFill=1;html=1;edgeStyle=orthogonalEdgeStyle;align=left;verticalAlign=top;rounded=0;" edge="1" parent="1">
          <mxGeometry x="-1" relative="1" as="geometry">
            <mxPoint x="300" y="630" as="sourcePoint" />
            <mxPoint x="400" y="630" as="targetPoint" />
          </mxGeometry>
        </mxCell>
        <mxCell id="5NUv0LfIs6cqSYfRhfGl-74" value="playerTurn()" style="edgeLabel;resizable=0;html=1;align=center;verticalAlign=bottom;" connectable="0" vertex="1" parent="1">
          <mxGeometry x="350" y="630.0000000000001" as="geometry" />
        </mxCell>
        <mxCell id="5NUv0LfIs6cqSYfRhfGl-75" value="Player Menu" style="shape=umlLifeline;perimeter=lifelinePerimeter;whiteSpace=wrap;html=1;container=1;dropTarget=0;collapsible=0;recursiveResize=0;outlineConnect=0;portConstraint=eastwest;newEdgeStyle={&quot;curved&quot;:0,&quot;rounded&quot;:0};" vertex="1" parent="1">
          <mxGeometry x="480" y="220" width="100" height="1568" as="geometry" />
        </mxCell>
        <mxCell id="5NUv0LfIs6cqSYfRhfGl-76" value="" style="html=1;points=[[0,0,0,0,5],[0,1,0,0,-5],[1,0,0,0,5],[1,1,0,0,-5]];perimeter=orthogonalPerimeter;outlineConnect=0;targetShapes=umlLifeline;portConstraint=eastwest;newEdgeStyle={&quot;curved&quot;:0,&quot;rounded&quot;:0};" vertex="1" parent="5NUv0LfIs6cqSYfRhfGl-75">
          <mxGeometry x="40" y="100" width="20" height="1448" as="geometry" />
        </mxCell>
        <mxCell id="5NUv0LfIs6cqSYfRhfGl-97" value="alt" style="shape=umlFrame;whiteSpace=wrap;html=1;pointerEvents=0;movable=1;resizable=1;rotatable=1;deletable=1;editable=1;locked=0;connectable=1;" vertex="1" parent="1">
          <mxGeometry x="270" y="660" width="318" height="1032" as="geometry" />
        </mxCell>
        <mxCell id="5NUv0LfIs6cqSYfRhfGl-98" value="isInJail" style="html=1;verticalAlign=bottom;endArrow=open;dashed=1;endSize=8;curved=0;rounded=0;movable=1;resizable=1;rotatable=1;deletable=1;editable=1;locked=0;connectable=1;" edge="1" parent="1" source="5NUv0LfIs6cqSYfRhfGl-25">
          <mxGeometry relative="1" as="geometry">
            <mxPoint x="450" y="650" as="sourcePoint" />
            <mxPoint x="300.0000000000001" y="650" as="targetPoint" />
            <mxPoint as="offset" />
          </mxGeometry>
        </mxCell>
        <mxCell id="5NUv0LfIs6cqSYfRhfGl-99" value="[isInJail==True]" style="edgeLabel;resizable=1;html=1;align=center;verticalAlign=bottom;movable=1;rotatable=1;deletable=1;editable=1;locked=0;connectable=1;" connectable="0" vertex="1" parent="1">
          <mxGeometry x="330" y="659.9999999999999" as="geometry">
            <mxPoint x="-9" y="47" as="offset" />
          </mxGeometry>
        </mxCell>
        <mxCell id="5NUv0LfIs6cqSYfRhfGl-100" value="[isInJail==false]" style="edgeLabel;resizable=1;html=1;align=center;verticalAlign=bottom;movable=1;rotatable=1;deletable=1;editable=1;locked=0;connectable=1;" connectable="0" vertex="1" parent="1">
          <mxGeometry x="330" y="707.9999999999999" as="geometry">
            <mxPoint x="-9" y="47" as="offset" />
          </mxGeometry>
        </mxCell>
        <mxCell id="5NUv0LfIs6cqSYfRhfGl-101" value="" style="endArrow=none;startArrow=none;endFill=0;startFill=0;endSize=8;html=1;verticalAlign=bottom;dashed=1;labelBackgroundColor=none;dashPattern=10 10;rounded=0;movable=1;resizable=1;rotatable=1;deletable=1;editable=1;locked=0;connectable=1;exitX=0.002;exitY=0.505;exitDx=0;exitDy=0;exitPerimeter=0;entryX=1;entryY=0.505;entryDx=0;entryDy=0;entryPerimeter=0;" edge="1" parent="1">
          <mxGeometry width="160" relative="1" as="geometry">
            <mxPoint x="270" y="732.4000000000001" as="sourcePoint" />
            <mxPoint x="559.4200000000001" y="732.4000000000001" as="targetPoint" />
            <Array as="points">
              <mxPoint x="369.41999999999996" y="732" />
            </Array>
          </mxGeometry>
        </mxCell>
        <mxCell id="5NUv0LfIs6cqSYfRhfGl-102" value="JailTurn" style="html=1;verticalAlign=bottom;endArrow=open;dashed=1;endSize=8;curved=0;rounded=0;movable=1;resizable=1;rotatable=1;deletable=1;editable=1;locked=0;connectable=1;" edge="1" parent="1">
          <mxGeometry relative="1" as="geometry">
            <mxPoint x="402.5" y="720" as="sourcePoint" />
            <mxPoint x="297.5" y="720" as="targetPoint" />
            <mxPoint as="offset" />
          </mxGeometry>
        </mxCell>
        <mxCell id="5NUv0LfIs6cqSYfRhfGl-105" value="" style="endArrow=block;endFill=1;html=1;edgeStyle=orthogonalEdgeStyle;align=left;verticalAlign=top;rounded=0;" edge="1" parent="1">
          <mxGeometry x="-1" relative="1" as="geometry">
            <mxPoint x="270" y="756" as="sourcePoint" />
            <mxPoint x="522" y="756" as="targetPoint" />
          </mxGeometry>
        </mxCell>
        <mxCell id="5NUv0LfIs6cqSYfRhfGl-106" value="printUserMenu()" style="edgeLabel;resizable=0;html=1;align=center;verticalAlign=bottom;" connectable="0" vertex="1" parent="1">
          <mxGeometry x="414" y="768.0000000000001" as="geometry">
            <mxPoint x="1" y="-8" as="offset" />
          </mxGeometry>
        </mxCell>
        <mxCell id="5NUv0LfIs6cqSYfRhfGl-107" value="loop" style="shape=umlFrame;whiteSpace=wrap;html=1;pointerEvents=0;" vertex="1" parent="1">
          <mxGeometry x="270" y="816" width="306" height="864" as="geometry" />
        </mxCell>
        <mxCell id="5NUv0LfIs6cqSYfRhfGl-108" value="choice" style="html=1;verticalAlign=bottom;endArrow=open;dashed=1;endSize=8;curved=0;rounded=0;movable=1;resizable=1;rotatable=1;deletable=1;editable=1;locked=0;connectable=1;" edge="1" parent="1">
          <mxGeometry x="0.0286" relative="1" as="geometry">
            <mxPoint x="525" y="780" as="sourcePoint" />
            <mxPoint x="420" y="780" as="targetPoint" />
            <mxPoint as="offset" />
          </mxGeometry>
        </mxCell>
        <mxCell id="5NUv0LfIs6cqSYfRhfGl-112" value="[Choice==1]" style="edgeLabel;resizable=1;html=1;align=center;verticalAlign=bottom;movable=1;rotatable=1;deletable=1;editable=1;locked=0;connectable=1;" connectable="0" vertex="1" parent="1">
          <mxGeometry x="320" y="899.9999999999999" as="geometry">
            <mxPoint x="-9" y="47" as="offset" />
          </mxGeometry>
        </mxCell>
        <mxCell id="5NUv0LfIs6cqSYfRhfGl-114" value="turnOver=true" style="html=1;verticalAlign=bottom;endArrow=open;dashed=1;endSize=8;curved=0;rounded=0;movable=1;resizable=1;rotatable=1;deletable=1;editable=1;locked=0;connectable=1;" edge="1" parent="1">
          <mxGeometry relative="1" as="geometry">
            <mxPoint x="396.25" y="996" as="sourcePoint" />
            <mxPoint x="303.75" y="996" as="targetPoint" />
            <mxPoint as="offset" />
          </mxGeometry>
        </mxCell>
        <mxCell id="5NUv0LfIs6cqSYfRhfGl-115" value="" style="endArrow=block;endFill=1;html=1;edgeStyle=orthogonalEdgeStyle;align=left;verticalAlign=top;rounded=0;" edge="1" parent="1">
          <mxGeometry x="-1" relative="1" as="geometry">
            <mxPoint x="296" y="1716" as="sourcePoint" />
            <mxPoint x="404" y="1716" as="targetPoint" />
          </mxGeometry>
        </mxCell>
        <mxCell id="5NUv0LfIs6cqSYfRhfGl-116" value="endTurn" style="edgeLabel;resizable=1;html=1;align=center;verticalAlign=bottom;movable=1;rotatable=1;deletable=1;editable=1;locked=0;connectable=1;" connectable="0" vertex="1" parent="1">
          <mxGeometry x="340" y="1644" as="geometry">
            <mxPoint x="8" y="65" as="offset" />
          </mxGeometry>
        </mxCell>
        <mxCell id="5NUv0LfIs6cqSYfRhfGl-117" value="" style="endArrow=none;startArrow=none;endFill=0;startFill=0;endSize=8;html=1;verticalAlign=bottom;dashed=1;labelBackgroundColor=none;dashPattern=10 10;rounded=0;movable=1;resizable=1;rotatable=1;deletable=1;editable=1;locked=0;connectable=1;entryX=1;entryY=0.15;entryDx=0;entryDy=0;entryPerimeter=0;" edge="1" parent="1">
          <mxGeometry width="160" relative="1" as="geometry">
            <mxPoint x="267" y="1008" as="sourcePoint" />
            <mxPoint x="561" y="1007.9999999999998" as="targetPoint" />
            <Array as="points">
              <mxPoint x="420" y="1008" />
            </Array>
          </mxGeometry>
        </mxCell>
        <mxCell id="5NUv0LfIs6cqSYfRhfGl-118" value="alt" style="shape=umlFrame;whiteSpace=wrap;html=1;pointerEvents=0;movable=1;resizable=1;rotatable=1;deletable=1;editable=1;locked=0;connectable=1;" vertex="1" parent="1">
          <mxGeometry x="270" y="900" width="294" height="768" as="geometry" />
        </mxCell>
        <mxCell id="5NUv0LfIs6cqSYfRhfGl-119" value="" style="endArrow=block;endFill=1;html=1;edgeStyle=orthogonalEdgeStyle;align=left;verticalAlign=top;rounded=0;" edge="1" parent="1">
          <mxGeometry x="-1" relative="1" as="geometry">
            <mxPoint x="300" y="867.23" as="sourcePoint" />
            <mxPoint x="408" y="867" as="targetPoint" />
          </mxGeometry>
        </mxCell>
        <mxCell id="5NUv0LfIs6cqSYfRhfGl-120" value="checkChoice()" style="edgeLabel;resizable=0;html=1;align=center;verticalAlign=bottom;" connectable="0" vertex="1" parent="1">
          <mxGeometry x="364" y="867.2300000000001" as="geometry" />
        </mxCell>
        <mxCell id="5NUv0LfIs6cqSYfRhfGl-121" value="turnOver" style="html=1;verticalAlign=bottom;endArrow=open;dashed=1;endSize=8;curved=0;rounded=0;movable=1;resizable=1;rotatable=1;deletable=1;editable=1;locked=0;connectable=1;" edge="1" parent="1">
          <mxGeometry relative="1" as="geometry">
            <mxPoint x="408" y="887" as="sourcePoint" />
            <mxPoint x="300.0000000000001" y="887.23" as="targetPoint" />
            <mxPoint as="offset" />
          </mxGeometry>
        </mxCell>
        <mxCell id="5NUv0LfIs6cqSYfRhfGl-123" value="" style="endArrow=block;endFill=1;html=1;edgeStyle=orthogonalEdgeStyle;align=left;verticalAlign=top;rounded=0;" edge="1" parent="1">
          <mxGeometry x="-1" relative="1" as="geometry">
            <mxPoint x="420" y="948" as="sourcePoint" />
            <mxPoint x="527" y="948.38" as="targetPoint" />
          </mxGeometry>
        </mxCell>
        <mxCell id="5NUv0LfIs6cqSYfRhfGl-124" value="rollDiceWithPrint()" style="edgeLabel;resizable=1;html=1;align=center;verticalAlign=bottom;movable=1;rotatable=1;deletable=1;editable=1;locked=0;connectable=1;" connectable="0" vertex="1" parent="1">
          <mxGeometry x="480" y="899.9999999999999" as="geometry">
            <mxPoint x="-9" y="47" as="offset" />
          </mxGeometry>
        </mxCell>
        <mxCell id="5NUv0LfIs6cqSYfRhfGl-125" value="positionMove(Dice,Player)" style="html=1;verticalAlign=bottom;endArrow=open;dashed=1;endSize=8;curved=0;rounded=0;movable=1;resizable=1;rotatable=1;deletable=1;editable=1;locked=0;connectable=1;" edge="1" parent="1">
          <mxGeometry relative="1" as="geometry">
            <mxPoint x="516" y="972" as="sourcePoint" />
            <mxPoint x="300" y="972" as="targetPoint" />
            <mxPoint as="offset" />
          </mxGeometry>
        </mxCell>
        <mxCell id="5NUv0LfIs6cqSYfRhfGl-133" value="turnOver=false" style="html=1;verticalAlign=bottom;endArrow=open;dashed=1;endSize=8;curved=0;rounded=0;movable=1;resizable=1;rotatable=1;deletable=1;editable=1;locked=0;connectable=1;" edge="1" parent="1">
          <mxGeometry relative="1" as="geometry">
            <mxPoint x="396.25" y="1080" as="sourcePoint" />
            <mxPoint x="303.75" y="1080" as="targetPoint" />
            <mxPoint as="offset" />
          </mxGeometry>
        </mxCell>
        <mxCell id="5NUv0LfIs6cqSYfRhfGl-134" value="" style="endArrow=none;startArrow=none;endFill=0;startFill=0;endSize=8;html=1;verticalAlign=bottom;dashed=1;labelBackgroundColor=none;dashPattern=10 10;rounded=0;movable=1;resizable=1;rotatable=1;deletable=1;editable=1;locked=0;connectable=1;entryX=1;entryY=0.15;entryDx=0;entryDy=0;entryPerimeter=0;" edge="1" parent="1">
          <mxGeometry width="160" relative="1" as="geometry">
            <mxPoint x="276" y="1092" as="sourcePoint" />
            <mxPoint x="570" y="1092" as="targetPoint" />
            <Array as="points">
              <mxPoint x="429" y="1092" />
            </Array>
          </mxGeometry>
        </mxCell>
        <mxCell id="5NUv0LfIs6cqSYfRhfGl-135" value="" style="endArrow=block;endFill=1;html=1;edgeStyle=orthogonalEdgeStyle;align=left;verticalAlign=top;rounded=0;" edge="1" parent="1">
          <mxGeometry x="-1" relative="1" as="geometry">
            <mxPoint x="426.5" y="1032" as="sourcePoint" />
            <mxPoint x="533.5" y="1032.38" as="targetPoint" />
          </mxGeometry>
        </mxCell>
        <mxCell id="5NUv0LfIs6cqSYfRhfGl-137" value="turnOver=false" style="html=1;verticalAlign=bottom;endArrow=open;dashed=1;endSize=8;curved=0;rounded=0;movable=1;resizable=1;rotatable=1;deletable=1;editable=1;locked=0;connectable=1;" edge="1" parent="1">
          <mxGeometry relative="1" as="geometry">
            <mxPoint x="396.25" y="1176" as="sourcePoint" />
            <mxPoint x="303.75" y="1176" as="targetPoint" />
            <mxPoint as="offset" />
          </mxGeometry>
        </mxCell>
        <mxCell id="5NUv0LfIs6cqSYfRhfGl-138" value="" style="endArrow=none;startArrow=none;endFill=0;startFill=0;endSize=8;html=1;verticalAlign=bottom;dashed=1;labelBackgroundColor=none;dashPattern=10 10;rounded=0;movable=1;resizable=1;rotatable=1;deletable=1;editable=1;locked=0;connectable=1;entryX=1;entryY=0.15;entryDx=0;entryDy=0;entryPerimeter=0;" edge="1" parent="1">
          <mxGeometry width="160" relative="1" as="geometry">
            <mxPoint x="267" y="1188" as="sourcePoint" />
            <mxPoint x="561" y="1187.9999999999998" as="targetPoint" />
            <Array as="points">
              <mxPoint x="420" y="1188" />
            </Array>
          </mxGeometry>
        </mxCell>
        <mxCell id="5NUv0LfIs6cqSYfRhfGl-140" value="allPlayer(Info)" style="html=1;verticalAlign=bottom;endArrow=open;dashed=1;endSize=8;curved=0;rounded=0;movable=1;resizable=1;rotatable=1;deletable=1;editable=1;locked=0;connectable=1;" edge="1" parent="1">
          <mxGeometry relative="1" as="geometry">
            <mxPoint x="516" y="1152" as="sourcePoint" />
            <mxPoint x="300" y="1152" as="targetPoint" />
            <mxPoint as="offset" />
          </mxGeometry>
        </mxCell>
        <mxCell id="5NUv0LfIs6cqSYfRhfGl-141" value="[Choice==2]" style="edgeLabel;resizable=1;html=1;align=center;verticalAlign=bottom;movable=1;rotatable=1;deletable=1;editable=1;locked=0;connectable=1;" connectable="0" vertex="1" parent="1">
          <mxGeometry x="320" y="983.9999999999999" as="geometry">
            <mxPoint x="-9" y="47" as="offset" />
          </mxGeometry>
        </mxCell>
        <mxCell id="5NUv0LfIs6cqSYfRhfGl-142" value="[Choice==3]" style="edgeLabel;resizable=1;html=1;align=center;verticalAlign=bottom;movable=1;rotatable=1;deletable=1;editable=1;locked=0;connectable=1;" connectable="0" vertex="1" parent="1">
          <mxGeometry x="320" y="1068" as="geometry">
            <mxPoint x="-9" y="47" as="offset" />
          </mxGeometry>
        </mxCell>
        <mxCell id="5NUv0LfIs6cqSYfRhfGl-143" value="turnOver=false" style="html=1;verticalAlign=bottom;endArrow=open;dashed=1;endSize=8;curved=0;rounded=0;movable=1;resizable=1;rotatable=1;deletable=1;editable=1;locked=0;connectable=1;" edge="1" parent="1">
          <mxGeometry relative="1" as="geometry">
            <mxPoint x="396.25" y="1272" as="sourcePoint" />
            <mxPoint x="303.75" y="1272" as="targetPoint" />
            <mxPoint as="offset" />
          </mxGeometry>
        </mxCell>
        <mxCell id="5NUv0LfIs6cqSYfRhfGl-144" value="" style="endArrow=none;startArrow=none;endFill=0;startFill=0;endSize=8;html=1;verticalAlign=bottom;dashed=1;labelBackgroundColor=none;dashPattern=10 10;rounded=0;movable=1;resizable=1;rotatable=1;deletable=1;editable=1;locked=0;connectable=1;entryX=1;entryY=0.15;entryDx=0;entryDy=0;entryPerimeter=0;" edge="1" parent="1">
          <mxGeometry width="160" relative="1" as="geometry">
            <mxPoint x="270" y="1284" as="sourcePoint" />
            <mxPoint x="564" y="1283.9999999999998" as="targetPoint" />
            <Array as="points">
              <mxPoint x="423" y="1284" />
            </Array>
          </mxGeometry>
        </mxCell>
        <mxCell id="5NUv0LfIs6cqSYfRhfGl-146" value="specificPlayer(Info)" style="html=1;verticalAlign=bottom;endArrow=open;dashed=1;endSize=8;curved=0;rounded=0;movable=1;resizable=1;rotatable=1;deletable=1;editable=1;locked=0;connectable=1;" edge="1" parent="1">
          <mxGeometry relative="1" as="geometry">
            <mxPoint x="522" y="1244.7" as="sourcePoint" />
            <mxPoint x="306" y="1244.7" as="targetPoint" />
            <mxPoint as="offset" />
          </mxGeometry>
        </mxCell>
        <mxCell id="5NUv0LfIs6cqSYfRhfGl-147" value="turnOver=false" style="html=1;verticalAlign=bottom;endArrow=open;dashed=1;endSize=8;curved=0;rounded=0;movable=1;resizable=1;rotatable=1;deletable=1;editable=1;locked=0;connectable=1;" edge="1" parent="1">
          <mxGeometry relative="1" as="geometry">
            <mxPoint x="396.25" y="1368" as="sourcePoint" />
            <mxPoint x="303.75" y="1368" as="targetPoint" />
            <mxPoint as="offset" />
          </mxGeometry>
        </mxCell>
        <mxCell id="5NUv0LfIs6cqSYfRhfGl-148" value="" style="endArrow=none;startArrow=none;endFill=0;startFill=0;endSize=8;html=1;verticalAlign=bottom;dashed=1;labelBackgroundColor=none;dashPattern=10 10;rounded=0;movable=1;resizable=1;rotatable=1;deletable=1;editable=1;locked=0;connectable=1;entryX=1;entryY=0.15;entryDx=0;entryDy=0;entryPerimeter=0;" edge="1" parent="1">
          <mxGeometry width="160" relative="1" as="geometry">
            <mxPoint x="270" y="1380" as="sourcePoint" />
            <mxPoint x="564" y="1379.9999999999998" as="targetPoint" />
            <Array as="points">
              <mxPoint x="423" y="1380" />
            </Array>
          </mxGeometry>
        </mxCell>
        <mxCell id="5NUv0LfIs6cqSYfRhfGl-149" value="" style="endArrow=block;endFill=1;html=1;edgeStyle=orthogonalEdgeStyle;align=left;verticalAlign=top;rounded=0;" edge="1" parent="1">
          <mxGeometry x="-1" relative="1" as="geometry">
            <mxPoint x="420" y="1320" as="sourcePoint" />
            <mxPoint x="530" y="1320.38" as="targetPoint" />
          </mxGeometry>
        </mxCell>
        <mxCell id="5NUv0LfIs6cqSYfRhfGl-150" value="nextPlayer(Name)" style="html=1;verticalAlign=bottom;endArrow=open;dashed=1;endSize=8;curved=0;rounded=0;movable=1;resizable=1;rotatable=1;deletable=1;editable=1;locked=0;connectable=1;" edge="1" parent="1">
          <mxGeometry relative="1" as="geometry">
            <mxPoint x="522" y="1344" as="sourcePoint" />
            <mxPoint x="306" y="1344" as="targetPoint" />
            <mxPoint as="offset" />
          </mxGeometry>
        </mxCell>
        <mxCell id="5NUv0LfIs6cqSYfRhfGl-151" value="turnOver=false" style="html=1;verticalAlign=bottom;endArrow=open;dashed=1;endSize=8;curved=0;rounded=0;movable=1;resizable=1;rotatable=1;deletable=1;editable=1;locked=0;connectable=1;" edge="1" parent="1">
          <mxGeometry relative="1" as="geometry">
            <mxPoint x="399.25" y="1452" as="sourcePoint" />
            <mxPoint x="306.75" y="1452" as="targetPoint" />
            <mxPoint as="offset" />
          </mxGeometry>
        </mxCell>
        <mxCell id="5NUv0LfIs6cqSYfRhfGl-152" value="" style="endArrow=none;startArrow=none;endFill=0;startFill=0;endSize=8;html=1;verticalAlign=bottom;dashed=1;labelBackgroundColor=none;dashPattern=10 10;rounded=0;movable=1;resizable=1;rotatable=1;deletable=1;editable=1;locked=0;connectable=1;entryX=1;entryY=0.15;entryDx=0;entryDy=0;entryPerimeter=0;" edge="1" parent="1">
          <mxGeometry width="160" relative="1" as="geometry">
            <mxPoint x="267" y="1464" as="sourcePoint" />
            <mxPoint x="561" y="1463.9999999999998" as="targetPoint" />
            <Array as="points">
              <mxPoint x="420" y="1464" />
            </Array>
          </mxGeometry>
        </mxCell>
        <mxCell id="5NUv0LfIs6cqSYfRhfGl-153" value="" style="endArrow=block;endFill=1;html=1;edgeStyle=orthogonalEdgeStyle;align=left;verticalAlign=top;rounded=0;" edge="1" parent="1">
          <mxGeometry x="-1" relative="1" as="geometry">
            <mxPoint x="425" y="1488" as="sourcePoint" />
            <mxPoint x="535" y="1488.38" as="targetPoint" />
          </mxGeometry>
        </mxCell>
        <mxCell id="5NUv0LfIs6cqSYfRhfGl-154" value="savedGame(txt.file)" style="html=1;verticalAlign=bottom;endArrow=open;dashed=1;endSize=8;curved=0;rounded=0;movable=1;resizable=1;rotatable=1;deletable=1;editable=1;locked=0;connectable=1;" edge="1" parent="1">
          <mxGeometry relative="1" as="geometry">
            <mxPoint x="519" y="1428" as="sourcePoint" />
            <mxPoint x="303" y="1428" as="targetPoint" />
            <mxPoint as="offset" />
          </mxGeometry>
        </mxCell>
        <mxCell id="5NUv0LfIs6cqSYfRhfGl-155" value="[Choice==4]" style="edgeLabel;resizable=1;html=1;align=center;verticalAlign=bottom;movable=1;rotatable=1;deletable=1;editable=1;locked=0;connectable=1;" connectable="0" vertex="1" parent="1">
          <mxGeometry x="320" y="1164" as="geometry">
            <mxPoint x="-9" y="47" as="offset" />
          </mxGeometry>
        </mxCell>
        <mxCell id="5NUv0LfIs6cqSYfRhfGl-156" value="[Choice==5]" style="edgeLabel;resizable=1;html=1;align=center;verticalAlign=bottom;movable=1;rotatable=1;deletable=1;editable=1;locked=0;connectable=1;" connectable="0" vertex="1" parent="1">
          <mxGeometry x="320" y="1260" as="geometry">
            <mxPoint x="-9" y="47" as="offset" />
          </mxGeometry>
        </mxCell>
        <mxCell id="5NUv0LfIs6cqSYfRhfGl-157" value="[Choice==6]" style="edgeLabel;resizable=1;html=1;align=center;verticalAlign=bottom;movable=1;rotatable=1;deletable=1;editable=1;locked=0;connectable=1;" connectable="0" vertex="1" parent="1">
          <mxGeometry x="320" y="1356" as="geometry">
            <mxPoint x="-9" y="47" as="offset" />
          </mxGeometry>
        </mxCell>
        <mxCell id="5NUv0LfIs6cqSYfRhfGl-158" value="turnOver=true" style="html=1;verticalAlign=bottom;endArrow=open;dashed=1;endSize=8;curved=0;rounded=0;movable=1;resizable=1;rotatable=1;deletable=1;editable=1;locked=0;connectable=1;" edge="1" parent="1">
          <mxGeometry relative="1" as="geometry">
            <mxPoint x="396" y="1572" as="sourcePoint" />
            <mxPoint x="303.75" y="1572" as="targetPoint" />
            <mxPoint as="offset" />
          </mxGeometry>
        </mxCell>
        <mxCell id="5NUv0LfIs6cqSYfRhfGl-159" value="" style="endArrow=none;startArrow=none;endFill=0;startFill=0;endSize=8;html=1;verticalAlign=bottom;dashed=1;labelBackgroundColor=none;dashPattern=10 10;rounded=0;movable=1;resizable=1;rotatable=1;deletable=1;editable=1;locked=0;connectable=1;entryX=1;entryY=0.15;entryDx=0;entryDy=0;entryPerimeter=0;" edge="1" parent="1">
          <mxGeometry width="160" relative="1" as="geometry">
            <mxPoint x="267" y="1608" as="sourcePoint" />
            <mxPoint x="561" y="1607.9999999999998" as="targetPoint" />
            <Array as="points">
              <mxPoint x="420" y="1608" />
            </Array>
          </mxGeometry>
        </mxCell>
        <mxCell id="5NUv0LfIs6cqSYfRhfGl-162" value="[Choice==8]" style="edgeLabel;resizable=1;html=1;align=center;verticalAlign=bottom;movable=1;rotatable=1;deletable=1;editable=1;locked=0;connectable=1;" connectable="0" vertex="1" parent="1">
          <mxGeometry x="312" y="1500" as="geometry">
            <mxPoint x="-9" y="47" as="offset" />
          </mxGeometry>
        </mxCell>
        <mxCell id="5NUv0LfIs6cqSYfRhfGl-163" value="printBoard()" style="edgeLabel;resizable=1;html=1;align=center;verticalAlign=bottom;movable=1;rotatable=1;deletable=1;editable=1;locked=0;connectable=1;" connectable="0" vertex="1" parent="1">
          <mxGeometry x="480" y="985.9999999999999" as="geometry">
            <mxPoint x="-9" y="47" as="offset" />
          </mxGeometry>
        </mxCell>
        <mxCell id="5NUv0LfIs6cqSYfRhfGl-164" value="[!turnOver]" style="edgeLabel;resizable=0;html=1;align=center;verticalAlign=bottom;" connectable="0" vertex="1" parent="1">
          <mxGeometry x="312" y="815.9999999999999" as="geometry">
            <mxPoint x="-9" y="47" as="offset" />
          </mxGeometry>
        </mxCell>
        <mxCell id="5NUv0LfIs6cqSYfRhfGl-165" value="gameBoard" style="html=1;verticalAlign=bottom;endArrow=open;dashed=1;endSize=8;curved=0;rounded=0;movable=1;resizable=1;rotatable=1;deletable=1;editable=1;locked=0;connectable=1;" edge="1" parent="1">
          <mxGeometry relative="1" as="geometry">
            <mxPoint x="522" y="1056" as="sourcePoint" />
            <mxPoint x="306" y="1056" as="targetPoint" />
            <mxPoint as="offset" />
          </mxGeometry>
        </mxCell>
        <mxCell id="5NUv0LfIs6cqSYfRhfGl-166" value="" style="endArrow=block;endFill=1;html=1;edgeStyle=orthogonalEdgeStyle;align=left;verticalAlign=top;rounded=0;" edge="1" parent="1">
          <mxGeometry x="-1" relative="1" as="geometry">
            <mxPoint x="426.5" y="1128" as="sourcePoint" />
            <mxPoint x="533.5" y="1128.38" as="targetPoint" />
          </mxGeometry>
        </mxCell>
        <mxCell id="5NUv0LfIs6cqSYfRhfGl-167" value="seeAllPlayer()" style="edgeLabel;resizable=1;html=1;align=center;verticalAlign=bottom;movable=1;rotatable=1;deletable=1;editable=1;locked=0;connectable=1;" connectable="0" vertex="1" parent="1">
          <mxGeometry x="480" y="1080" as="geometry">
            <mxPoint x="-9" y="47" as="offset" />
          </mxGeometry>
        </mxCell>
        <mxCell id="5NUv0LfIs6cqSYfRhfGl-168" value="" style="endArrow=block;endFill=1;html=1;edgeStyle=orthogonalEdgeStyle;align=left;verticalAlign=top;rounded=0;" edge="1" parent="1">
          <mxGeometry x="-1" relative="1" as="geometry">
            <mxPoint x="426.5" y="1224" as="sourcePoint" />
            <mxPoint x="533.5" y="1224.38" as="targetPoint" />
          </mxGeometry>
        </mxCell>
        <mxCell id="5NUv0LfIs6cqSYfRhfGl-169" value="seeSpeceficPlayer()" style="edgeLabel;resizable=1;html=1;align=center;verticalAlign=bottom;movable=1;rotatable=1;deletable=1;editable=1;locked=0;connectable=1;" connectable="0" vertex="1" parent="1">
          <mxGeometry x="480" y="1176" as="geometry">
            <mxPoint x="-9" y="47" as="offset" />
          </mxGeometry>
        </mxCell>
        <mxCell id="5NUv0LfIs6cqSYfRhfGl-170" value="queryNextPlayer()" style="edgeLabel;resizable=1;html=1;align=center;verticalAlign=bottom;movable=1;rotatable=1;deletable=1;editable=1;locked=0;connectable=1;" connectable="0" vertex="1" parent="1">
          <mxGeometry x="480" y="1272" as="geometry">
            <mxPoint x="-9" y="47" as="offset" />
          </mxGeometry>
        </mxCell>
        <mxCell id="5NUv0LfIs6cqSYfRhfGl-171" value="saveGame()" style="edgeLabel;resizable=1;html=1;align=center;verticalAlign=bottom;movable=1;rotatable=1;deletable=1;editable=1;locked=0;connectable=1;" connectable="0" vertex="1" parent="1">
          <mxGeometry x="480" y="1356" as="geometry">
            <mxPoint x="-9" y="47" as="offset" />
          </mxGeometry>
        </mxCell>
        <mxCell id="5NUv0LfIs6cqSYfRhfGl-172" value="" style="endArrow=block;endFill=1;html=1;edgeStyle=orthogonalEdgeStyle;align=left;verticalAlign=top;rounded=0;" edge="1" parent="1">
          <mxGeometry x="-1" relative="1" as="geometry">
            <mxPoint x="428.5" y="1560" as="sourcePoint" />
            <mxPoint x="531.5" y="1560" as="targetPoint" />
          </mxGeometry>
        </mxCell>
        <mxCell id="5NUv0LfIs6cqSYfRhfGl-173" value="exit()" style="edgeLabel;resizable=1;html=1;align=center;verticalAlign=bottom;movable=1;rotatable=1;deletable=1;editable=1;locked=0;connectable=1;" connectable="0" vertex="1" parent="1">
          <mxGeometry x="480" y="1512" as="geometry">
            <mxPoint x="-9" y="47" as="offset" />
          </mxGeometry>
        </mxCell>
        <mxCell id="N0xQrKwxlJMAW4WGzeQc-6" value="[else]" style="edgeLabel;resizable=1;html=1;align=center;verticalAlign=bottom;movable=1;rotatable=1;deletable=1;editable=1;locked=0;connectable=1;" connectable="0" vertex="1" parent="1">
          <mxGeometry x="300" y="1584" as="geometry">
            <mxPoint x="-9" y="47" as="offset" />
          </mxGeometry>
        </mxCell>
        <mxCell id="5NUv0LfIs6cqSYfRhfGl-174" value="gameOver=true" style="html=1;verticalAlign=bottom;endArrow=open;dashed=1;endSize=8;curved=0;rounded=0;movable=1;resizable=1;rotatable=1;deletable=1;editable=1;locked=0;connectable=1;" edge="1" parent="1">
          <mxGeometry relative="1" as="geometry">
            <mxPoint x="396.25" y="1596" as="sourcePoint" />
            <mxPoint x="303.75" y="1596" as="targetPoint" />
            <mxPoint as="offset" />
          </mxGeometry>
        </mxCell>
        <mxCell id="N0xQrKwxlJMAW4WGzeQc-2" value="" style="endArrow=none;startArrow=none;endFill=0;startFill=0;endSize=8;html=1;verticalAlign=bottom;dashed=1;labelBackgroundColor=none;dashPattern=10 10;rounded=0;movable=1;resizable=1;rotatable=1;deletable=1;editable=1;locked=0;connectable=1;entryX=1;entryY=0.15;entryDx=0;entryDy=0;entryPerimeter=0;" edge="1" parent="1">
          <mxGeometry width="160" relative="1" as="geometry">
            <mxPoint x="270" y="1524" as="sourcePoint" />
            <mxPoint x="564" y="1523.9999999999998" as="targetPoint" />
            <Array as="points">
              <mxPoint x="423" y="1524" />
            </Array>
          </mxGeometry>
        </mxCell>
        <mxCell id="N0xQrKwxlJMAW4WGzeQc-3" value="[Choice==7]" style="edgeLabel;resizable=1;html=1;align=center;verticalAlign=bottom;movable=1;rotatable=1;deletable=1;editable=1;locked=0;connectable=1;" connectable="0" vertex="1" parent="1">
          <mxGeometry x="312" y="1440" as="geometry">
            <mxPoint x="-9" y="47" as="offset" />
          </mxGeometry>
        </mxCell>
        <mxCell id="N0xQrKwxlJMAW4WGzeQc-9" value="" style="endArrow=block;endFill=1;html=1;edgeStyle=orthogonalEdgeStyle;align=left;verticalAlign=top;rounded=0;" edge="1" parent="1">
          <mxGeometry x="-1" relative="1" as="geometry">
            <mxPoint x="432" y="1632" as="sourcePoint" />
            <mxPoint x="516" y="1632" as="targetPoint" />
          </mxGeometry>
        </mxCell>
        <mxCell id="N0xQrKwxlJMAW4WGzeQc-10" value="printUserMenu()" style="edgeLabel;resizable=0;html=1;align=center;verticalAlign=bottom;" connectable="0" vertex="1" parent="1">
          <mxGeometry x="464" y="1632" as="geometry" />
        </mxCell>
        <mxCell id="N0xQrKwxlJMAW4WGzeQc-11" value="turnOver=false" style="html=1;verticalAlign=bottom;endArrow=open;dashed=1;endSize=8;curved=0;rounded=0;movable=1;resizable=1;rotatable=1;deletable=1;editable=1;locked=0;connectable=1;" edge="1" parent="1">
          <mxGeometry relative="1" as="geometry">
            <mxPoint x="404.5" y="1656" as="sourcePoint" />
            <mxPoint x="312" y="1656" as="targetPoint" />
            <mxPoint as="offset" />
          </mxGeometry>
        </mxCell>
        <mxCell id="N0xQrKwxlJMAW4WGzeQc-12" value="turnOver=true" style="html=1;verticalAlign=bottom;endArrow=open;dashed=1;endSize=8;curved=0;rounded=0;movable=1;resizable=1;rotatable=1;deletable=1;editable=1;locked=0;connectable=1;" edge="1" parent="1">
          <mxGeometry relative="1" as="geometry">
            <mxPoint x="396.13" y="1512" as="sourcePoint" />
            <mxPoint x="303.88" y="1512" as="targetPoint" />
            <mxPoint as="offset" />
          </mxGeometry>
        </mxCell>
        <mxCell id="N0xQrKwxlJMAW4WGzeQc-13" value="returnBackToMain()" style="edgeLabel;resizable=1;html=1;align=center;verticalAlign=bottom;movable=1;rotatable=1;deletable=1;editable=1;locked=0;connectable=1;" connectable="0" vertex="1" parent="1">
          <mxGeometry x="480" y="1440" as="geometry">
            <mxPoint x="-9" y="47" as="offset" />
          </mxGeometry>
        </mxCell>
        <mxCell id="N0xQrKwxlJMAW4WGzeQc-14" value="" style="endArrow=block;endFill=1;html=1;edgeStyle=orthogonalEdgeStyle;align=left;verticalAlign=top;rounded=0;" edge="1" parent="1">
          <mxGeometry x="-1" relative="1" as="geometry">
            <mxPoint x="432" y="1416" as="sourcePoint" />
            <mxPoint x="542" y="1416.38" as="targetPoint" />
          </mxGeometry>
        </mxCell>
        <mxCell id="N0xQrKwxlJMAW4WGzeQc-15" value="turnOver=false" style="html=1;verticalAlign=bottom;endArrow=open;dashed=1;endSize=8;curved=0;rounded=0;movable=1;resizable=1;rotatable=1;deletable=1;editable=1;locked=0;connectable=1;" edge="1" parent="1">
          <mxGeometry x="0.0286" relative="1" as="geometry">
            <mxPoint x="516" y="804" as="sourcePoint" />
            <mxPoint x="420" y="803" as="targetPoint" />
            <mxPoint as="offset" />
          </mxGeometry>
        </mxCell>
      </root>
    </mxGraphModel>
  </diagram>
</mxfile>
